<?xml version="1.0" encoding="UTF-8" standalone="no"?>
<svg
   version="1.1"
   width="256"
   height="256"
   viewBox="0 0 256 256"
   xml:space="preserve"
   id="svg3"
   sodipodi:docname="exit-logout.svg"
   inkscape:version="1.3 (0e150ed6c4, 2023-07-21)"
   xmlns:inkscape="http://www.inkscape.org/namespaces/inkscape"
   xmlns:sodipodi="http://sodipodi.sourceforge.net/DTD/sodipodi-0.dtd"
   xmlns="http://www.w3.org/2000/svg"
   xmlns:svg="http://www.w3.org/2000/svg"><sodipodi:namedview
   id="namedview3"
   pagecolor="#262626"
   bordercolor="#262626"
   borderopacity="1"
   inkscape:showpageshadow="0"
   inkscape:pageopacity="0"
   inkscape:pagecheckerboard="0"
   inkscape:deskcolor="#262626"
   inkscape:zoom="1.4142136"
   inkscape:cx="-12.020815"
   inkscape:cy="45.608386"
   inkscape:window-width="1920"
   inkscape:window-height="1009"
   inkscape:window-x="-8"
   inkscape:window-y="-8"
   inkscape:window-maximized="1"
   inkscape:current-layer="svg3" />&#10;&#10;<defs
   id="defs1">&#10;</defs>&#10;<g
   style="stroke:none;stroke-width:0;stroke-dasharray:none;stroke-linecap:butt;stroke-linejoin:miter;stroke-miterlimit:10;fill:#eaf2ae;fill-rule:nonzero;opacity:1;fill-opacity:1"
   transform="translate(1.4065934065934016 1.4065934065934016) scale(2.81 2.81)"
   id="g3">&#10;	<path
   d="m 65.319025,49.096794 c -0.904,-0.636 -1.122,-1.883 -0.487,-2.786 L 77.797,36.894 64.832025,27.477206 c -0.635,-0.904 -0.417,-2.151 0.487,-2.786 0.904,-0.637 2.151,-0.417 2.786,0.486 L 81.878,35.744 c 0.484,0.69 0.484,1.61 0,2.3 L 68.105025,48.609794 c -0.644003,0.917166 -1.899194,1.109543 -2.786,0.487 z"
   style="opacity:1;fill:#262626;fill-rule:nonzero;stroke:none;stroke-width:1;stroke-linecap:butt;stroke-linejoin:miter;stroke-miterlimit:10;stroke-dasharray:none;fill-opacity:1"
   stroke-linecap="round"
   id="path1"
   sodipodi:nodetypes="cccccccccc" />&#10;	<path
   d="m 57.693,30.092 c 1.104,0 2,-0.896 2,-2 V 2 c 0,-1.104 -0.896,-2 -2,-2 H 9.759 C 8.9679324,0 7.7450988,1.261637 7.7450988,2.6019239 L 17.902,4 h 37.791 v 24.092 c 0,1.104 0.896,2 2,2 z"
   style="opacity:1;fill:#262626;fill-rule:nonzero;stroke:none;stroke-width:1;stroke-linecap:butt;stroke-linejoin:miter;stroke-miterlimit:10;stroke-dasharray:none;fill-opacity:1"
   stroke-linecap="round"
   id="path2"
   sodipodi:nodetypes="ssssscccss" /><path
   d="m 42.355175,77.734832 h 14.918003 c 1.104,0 2,-0.896 2,-2 v -26.787 c 0,-1.104 -0.896,-2 -2,-2 -1.104,0 -2,0.896 -2,2 v 24.787 H 42.355175 Z"
   style="fill:#262626;fill-rule:nonzero;stroke:none;stroke-width:1;stroke-linecap:butt;stroke-linejoin:miter;stroke-miterlimit:10;stroke-dasharray:none;fill-opacity:1"
   stroke-linecap="round"
   id="path2-0"
   sodipodi:nodetypes="csssssccc" /><path
   id="path4"
   style="fill:#262626;fill-rule:nonzero;stroke:none;stroke-width:0.992092;stroke-linecap:butt;stroke-linejoin:miter;stroke-miterlimit:10;stroke-dasharray:none;fill-opacity:1"
   d="m 9.7261891,0.71092651 c -0.7848113,0 -1.9845698,0.65419379 -1.9845698,1.98388019 V 71.929952 c 0,1.10065 0.9059158,1.667271 1.0653787,1.758392 l 30.771176,16.084807 c 1.298339,0.684987 2.902382,-0.260497 2.902382,-1.758393 V 18.77962 c 0,-0.739114 -0.410599,-1.41643 -1.065379,-1.757708 C 30.906121,11.475046 20.391384,5.9498772 9.7261891,0.71092651 Z M 10.497123,4.2339172 C 20.598927,9.2249589 29.183621,14.448488 39.180984,19.725009 V 86.786642 L 10.497123,71.054892 Z"
   sodipodi:nodetypes="cssccssccccccc" />&#10;	<path
   d="M 80.241 38.894 H 47.536 c -1.104 0 -2 -0.896 -2 -2 s 0.896 -2 2 -2 h 32.705 c 1.104 0 2 0.896 2 2 S 81.346 38.894 80.241 38.894 z"
   style="stroke:none;stroke-width:1;stroke-dasharray:none;stroke-linecap:butt;stroke-linejoin:miter;stroke-miterlimit:10;fill:#262626;fill-rule:nonzero;opacity:1;fill-opacity:1"
   transform=" matrix(1 0 0 1 0 0) "
   stroke-linecap="round"
   id="path3" />&#10;<path
   style="fill:#262626;fill-opacity:1;stroke-width:1.18624"
   d="m 36.931206,50.629046 c 0.680077,1.094801 0.41796,1.956015 0,2.846975 l -6.049822,-3.385717 c -0.221306,-0.824301 -0.670697,-1.355923 0,-2.846975 z"
   id="path5"
   sodipodi:nodetypes="ccccc" /></g>&#10;</svg>
