<?xml version="1.0" encoding="UTF-8" standalone="no"?>
<svg
   width="200"
   height="200"
   version="1.1"
   id="svg1"
   sodipodi:docname="_8b007dbb-c0e1-4db5-af5b-c50ced5a17bc.svg"
   inkscape:version="1.3 (0e150ed6c4, 2023-07-21)"
   xmlns:inkscape="http://www.inkscape.org/namespaces/inkscape"
   xmlns:sodipodi="http://sodipodi.sourceforge.net/DTD/sodipodi-0.dtd"
   xmlns="http://www.w3.org/2000/svg"
   xmlns:svg="http://www.w3.org/2000/svg">
  <defs
     id="defs1" />
  <sodipodi:namedview
     id="namedview1"
     pagecolor="#505050"
     bordercolor="#eeeeee"
     borderopacity="1"
     inkscape:showpageshadow="0"
     inkscape:pageopacity="0"
     inkscape:pagecheckerboard="0"
     inkscape:deskcolor="#505050"
     inkscape:zoom="3.1757812"
     inkscape:cx="144.37392"
     inkscape:cy="116.66421"
     inkscape:window-width="1920"
     inkscape:window-height="1009"
     inkscape:window-x="-8"
     inkscape:window-y="-8"
     inkscape:window-maximized="1"
     inkscape:current-layer="svg1" />
  <path
     style="fill:#262626;fill-opacity:1;stroke:none;stroke-width:0.247519"
     d="m 96.499259,0.1372345 c 2.868646,-0.339153 5.796141,0.0416 8.655371,0.167179 8.76194,0.384232 17.37401,1.847644 25.71876,4.634229 9.63516,3.217395 18.91767,7.6350785 27.20257,13.5662255 12.3094,8.812611 22.63424,20.50694 29.84638,33.834599 11.69216,21.605906 14.88971,47.925543 9.61612,71.844583 -1.61435,7.32195 -4.01115,14.59784 -7.38055,21.30564 -15.40703,30.67195 -46.32843,50.33557 -80.05737,53.96619 -12.250048,1.31873 -25.222944,0.23339 -37.094379,-3.1795 C 56.258038,191.46156 41.074057,183.15832 28.502789,170.98562 22.671287,165.33936 17.460758,158.6588 13.309917,151.6832 -8.8923221,114.37232 -2.4809381,64.409098 26.309259,32.520269 39.601168,17.797567 57.635716,7.2218145 76.962897,2.7634655 m 14.343161,1.061091 c -4.73227,0.451383 -9.47268,1.307065 -14.095868,2.406539 C 54.695873,11.585488 35.089495,25.110616 21.674201,43.916314 14.973705,53.309358 10.271384,63.812556 7.1213354,74.883807 3.825367,86.467123 2.9667653,98.332385 3.78555,110.31061 c 0.5064563,7.40917 2.1712678,14.76753 4.5114227,21.80112 2.1163513,6.35998 4.8069463,12.62782 8.3415443,18.33275 7.009595,11.31355 16.241644,21.16071 27.186713,28.73166 20.001547,13.83478 45.252688,19.52414 69.24287,16.53392 29.57856,-3.68687 57.86651,-21.81302 72.13399,-48.23845 8.01214,-14.83911 11.86032,-31.71393 11.44832,-48.557042 -0.66227,-27.08293 -12.75082,-53.89434 -33.13394,-71.77373 -8.87619,-7.785717 -19.16222,-13.605876 -30.1701,-17.7654345 -8.22655,-3.108386 -16.95139,-5.010293 -25.71878,-5.61503 m -12.859383,4.304489 c 3.467084,-0.410007 7.171073,-0.08296 10.633723,0.154749 7.87142,0.540299 15.49703,1.8937135 22.99851,4.3988595 14.76703,4.931017 28.76398,13.214693 39.27802,24.856484 6.36217,7.044497 11.83978,15.134687 15.79256,23.783037 14.29791,31.281885 11.04571,70.665608 -11.23837,97.361818 -6.93492,8.30821 -15.16665,15.28159 -24.54312,20.66671 -10.67972,6.13379 -23.06011,10.65457 -35.36333,11.99385 -5.16352,0.56212 -10.37578,1.00285 -15.579648,0.77468 C 66.482489,190.72741 37.053537,174.88715 20.931821,148.95796 16.470357,141.78241 13.174639,133.82649 10.972218,125.6704 7.167565,111.58018 7.2766241,97.100031 9.7602203,82.811385 11.716076,71.558774 16.445367,60.496199 22.452941,50.852919 29.186296,40.044766 38.100832,30.94899 48.523868,23.709307 58.221807,16.97324 70.107363,12.168331 81.661512,9.8393185 85.982763,8.9682625 90.399703,8.5810625 94.768207,8.0647615 M 25.278041,143.50782 c 0.486422,1.0425 1.097254,2.01338 1.731074,2.97287 4.846264,-1.00208 12.301487,-2.12733 17.063409,-3.46834 v 1.98192 c -2.091862,0.28218 -6.609219,1.00533 -8.655351,1.5179 -2.302816,0.57673 -4.747824,0.98527 -6.924276,1.95044 0.469368,0.84356 1.089818,2.20169 2.052544,2.56586 0.959748,0.36317 2.457378,-0.31759 3.38795,-0.58394 2.537762,-0.72635 6.596121,-1.3182 9.14996,-1.98192 -0.0068,0.61689 0.06003,1.35367 -0.396419,1.84222 -0.628637,0.67237 -3.453736,0.76029 -4.302219,0.9756 -2.143548,0.54377 -4.365002,1.09747 -6.429689,1.88924 0.502272,0.87157 1.249108,2.21953 2.267706,2.55322 0.741902,0.24329 1.710313,-0.17428 2.430931,-0.355 1.644755,-0.41176 3.780163,-0.86388 5.440495,-1.20724 v 2.22964 c -1.950171,0.0852 -4.365753,0.80789 -6.182397,1.48645 0.580656,1.00606 1.466227,2.4229 2.72027,2.6206 0.926366,0.14612 2.05948,-0.44842 2.96754,-0.63868 -0.0023,0.93546 -0.661017,2.17393 -0.518826,2.99493 0.01592,0.0855 22.98655,21.17842 57.396884,22.0231 14.223233,0.34907 28.794653,-3.4255 41.545723,-9.59422 7.97476,-4.50074 19.99384,-8.96711 24.235,-17.65346 -1.26045,-0.21715 -2.47172,-0.72118 -3.70944,-1.05688 -0.5893,-0.15982 -1.84259,-0.2377 -2.21872,-0.78409 -0.31481,-0.45757 -0.24805,-1.1027 -0.25423,-1.62739 1.68111,0.22679 3.80638,0.75857 5.44051,1.20127 0.72458,0.19636 1.7004,0.59954 2.45095,0.36097 1.02801,-0.32651 1.90542,-1.71139 2.49496,-2.55322 -2.19821,-0.7162 -4.43574,-1.32068 -6.67698,-1.88924 -0.84873,-0.21538 -3.179,-0.30323 -3.80761,-0.9756 -0.45652,-0.48855 -0.38926,-1.22533 -0.39642,-1.84222 2.69824,0.76131 6.43067,1.39307 9.14994,2.07434 0.84032,0.21056 2.29442,0.91763 3.13424,0.55468 0.90288,-0.38994 1.56562,-1.82831 2.05898,-2.62902 -3.09688,-1.3353 -6.64658,-1.68932 -9.89184,-2.58242 -1.75952,-0.48408 -5.37027,-0.45833 -5.44051,-2.62011 4.98004,0.39714 11.9298,2.21084 16.81613,3.22061 l 1.73105,-2.97287 c -5.4635,-1.2548 -13.06258,-2.96619 -18.62079,-3.71609 L 156.3628,63.17578 c -0.0182,-8.994352 0.39942,-17.239569 -4.57068,-23.459639 -4.36478,-5.462539 -11.9224,-8.434518 -19.18767,-8.434518 H 65.834547 c -5.479811,0 -11.268631,3.391702 -14.874154,7.649031 -4.452413,5.257383 -5.972828,12.518604 -6.310261,19.69408 -1.136593,24.95126 0.16418,49.754316 0.16418,74.725746 0,1.53946 -2.389386,4.60427 -3.398342,5.87069 -0.874201,1.09701 -3.233639,1.1805 -4.515129,1.47506 -3.876874,0.89137 -7.794043,1.7312 -11.622914,2.81159 m 11.622914,-98.105034 1.978368,1.238722 c -0.0045,-1.482489 -0.799024,-3.242434 -1.978368,-1.238722 m 124.637149,1.238722 c 0.73174,-0.324794 1.33143,-0.764051 1.97837,-1.238722 -0.26189,-0.685231 -1.05596,-1.628866 -1.72441,-0.660699 -0.35535,0.514804 -0.25198,1.30879 -0.25396,1.899421 M 17.611749,46.146009 17.859042,46.39386 17.611749,46.146009 m 148.624861,1.734195 c -1.6841,1.296918 -4.52057,2.346593 -4.69862,4.707063 2.00507,-0.761311 3.62758,-2.347354 5.4405,-3.468366 -0.161,-0.603239 -0.28686,-0.813342 -0.74188,-1.238697 m -132.303332,0.247598 -0.494587,0.990972 c 1.715999,1.159674 3.386222,2.45956 5.193224,3.468366 0.362288,-1.929914 -3.045218,-4.028504 -4.698637,-4.459338 m -2.967541,3.468366 c -0.249271,1.52186 0.808643,1.958149 1.978368,2.678312 1.861896,1.146304 3.66319,2.418437 5.68781,3.267447 -0.181234,-1.080651 -0.871222,-1.56174 -1.731324,-2.191997 -1.778055,-1.302879 -3.83135,-3.08114 -5.934854,-3.753762 m 130.572253,5.945759 c 2.84834,-0.90921 5.61484,-3.14035 8.16077,-4.707063 -0.1353,-0.464498 -0.27452,-0.80639 -0.49459,-1.238696 -1.81319,0.859411 -3.53955,2.111984 -5.19322,3.250348 -1.09726,0.755121 -2.09855,1.363307 -2.47296,2.695411 m 9.89184,-2.229669 c -3.05756,2.187557 -7.65876,3.587293 -9.89184,6.688982 3.82715,-0.683505 7.0237,-3.878347 10.63372,-5.202536 -0.13121,-0.666407 -0.27599,-0.99592 -0.74188,-1.486446 m -143.184363,0.247851 -0.247293,0.990972 c 3.264815,2.156811 7.022466,4.191751 10.633741,5.69801 -0.372929,-1.269672 -1.395984,-1.693555 -2.472976,-2.340885 -2.387635,-1.435405 -5.158092,-3.815941 -7.913472,-4.348097 m -2.225661,3.71609 c -0.283403,1.70421 1.387343,2.164522 2.72027,2.759593 3.155984,1.408894 6.300347,3.26075 9.644524,4.177139 -1.038632,-1.222842 -2.581263,-1.805786 -3.956713,-2.582445 -2.723727,-1.538224 -5.519401,-3.149508 -8.408081,-4.354287 m 135.765484,6.936732 c 4.49211,-1.230782 8.39939,-4.16377 12.85938,-5.450286 -0.0982,-0.570032 -0.23666,-0.967431 -0.49459,-1.486446 -2.8073,1.170835 -5.47613,2.713752 -8.16077,4.137766 -1.47882,0.784599 -3.12137,1.489896 -4.20402,2.798966 M 23.794145,63.240038 23.546852,64.726484 C 28.365169,66.59866 33.344481,69.008192 38.3846,70.17677 37.570749,68.931883 35.739029,68.463656 34.427887,67.871299 30.933333,66.293197 27.424704,64.470566 23.794145,63.240038 M 162.03258,70.17677 c 5.01467,-1.634599 9.84659,-3.758709 14.83775,-5.450286 -0.12462,-0.531649 -0.27697,-0.985746 -0.49459,-1.486446 -3.61844,1.234004 -7.21066,2.946636 -10.63372,4.64562 -1.25577,0.623585 -2.94505,1.059595 -3.70944,2.291112 m 0,3.468366 c 1.36285,0.311653 3.11123,-0.621835 4.45132,-0.959516 4.12392,-1.039249 8.19587,-3.028855 12.36479,-3.747547 -0.0935,-0.631982 -0.24431,-1.146304 -0.49458,-1.734195 -5.37794,2.089711 -11.22402,3.721569 -16.32153,6.441258 M 21.815778,67.451627 c -0.450563,2.142452 2.128244,2.239335 3.709442,2.731587 4.192659,1.305086 8.384818,2.51679 12.612086,3.709646 -0.823491,-1.208965 -2.88495,-1.556793 -4.204028,-2.080756 -3.912212,-1.553825 -8.014617,-3.409637 -12.1175,-4.360477 m 139.969512,9.661849 c 1.55054,0.55717 3.86721,-0.416196 5.44051,-0.742462 4.48719,-0.930772 8.87297,-2.294815 13.35397,-3.221377 l -0.24729,-1.73417 c -6.288,1.316984 -12.36678,3.941058 -18.54719,5.698009 M 20.084703,71.663216 c -0.217618,0.500674 -0.369951,0.954772 -0.494586,1.486421 4.545304,1.043993 9.029758,2.273278 13.601281,3.221377 1.717727,0.356251 3.435431,0.913421 5.193202,0.990212 C 36.30313,75.976863 33.348915,75.533167 30.965737,74.8489 27.346071,73.809372 23.773384,72.425998 20.084703,71.663216 m -1.483759,4.211564 c -0.292317,0.602021 -0.427823,1.068524 -0.494609,1.734195 6.779129,0.554684 13.419524,3.078908 20.278265,3.220617 C 36.84149,79.679076 34.299272,79.577019 32.449519,79.127614 27.842135,78.008074 23.191,77.064921 18.600944,75.87478 m 143.431636,4.459338 v 0.495474 c 6.74227,-0.533882 13.33791,-2.368892 20.03097,-3.220617 -0.0894,-2.722428 -3.20149,-1.128952 -4.94593,-0.71448 -4.95482,1.176747 -10.04044,2.759061 -15.08504,3.439623 m -145.162711,0 -0.247293,1.734171 c 7.262573,0.312388 14.468047,2.078777 21.762024,2.229669 v -0.495499 c -4.899179,-0.390676 -9.993713,-1.50872 -14.837748,-2.381754 -2.184866,-0.393923 -4.459735,-0.990973 -6.676983,-1.086587 m 145.162711,3.96384 c 3.87462,-0.720696 7.95081,-0.659 11.87021,-1.033085 3.14313,-0.299755 6.24718,-0.947617 9.39725,-1.196584 l -0.24732,-1.734171 c -5.1519,0.408028 -10.50512,1.493372 -15.57962,2.477394 -1.53127,0.29704 -4.41449,0.21411 -5.44052,1.486446 m -146.151906,0.495473 -0.247293,1.734171 c 7.588022,0.156777 15.142913,1.238696 22.751219,1.238696 V 87.270825 C 30.870276,87.208418 23.40739,84.855863 15.880674,84.793431 m 146.151906,2.477394 v 0.495473 c 4.92392,-4.82e-4 9.9277,-0.376317 14.83775,-0.721152 2.48286,-0.174282 5.27333,-0.05505 7.66617,-0.765268 l -0.24729,-1.486447 c -7.4268,0.0051 -14.86397,1.892978 -22.25663,2.477394 m -147.141078,1.98192 c -0.02729,0.604989 -0.105967,1.145314 -0.247293,1.73417 2.640863,0.782138 5.910362,0.495499 8.65535,0.495499 h 15.332356 c -0.437964,-1.500323 -4.316066,-1.235475 -5.68781,-1.238697 -6.022901,-0.01268 -12.025768,-0.990972 -18.052603,-0.990972 m 146.893788,2.229669 23.49312,-0.247851 c -0.007,-0.507118 0.07,-1.18692 -0.2634,-1.616004 -0.73692,-0.949089 -3.18268,-0.137244 -4.18795,-0.119486 -4.45898,0.07915 -8.90587,0.713491 -13.35396,0.744466 -1.39155,0.01015 -5.23402,-0.315635 -5.68781,1.238697 M 14.396915,93.95963 c -0.12393,0.665417 -0.2183,1.305593 -0.247315,1.981919 h 18.794505 c 1.988987,0 5.787455,0.937445 5.935104,-1.73417 L 14.396915,93.959528 m 147.141075,0.247851 v 1.734373 h 24.4823 l -0.2473,-1.98192 -24.235,0.247851 M 13.902306,98.666997 v 2.477393 c 2.099798,-0.50067 4.292577,-0.12329 6.429713,-0.2698 6.175711,-0.42388 12.376413,-0.48109 18.54719,-0.968897 v -1.486446 c -5.848557,0 -11.695613,0.247851 -17.558018,0.247851 -2.339427,0 -5.159342,0.492252 -7.418885,0 M 161.53799,98.419247 v 1.734193 c 4.30147,0 8.57201,0.44344 12.85938,0.49449 2.07185,0.0254 4.12194,0.19457 6.1824,0.24506 1.81194,0.0447 3.66517,-0.172 5.44052,0.2514 0.11233,-0.60844 0.41818,-1.530029 -0.007,-2.080274 -0.34177,-0.44121 -0.98869,-0.373349 -1.47611,-0.325276 -1.35074,0.132932 -2.60476,-0.0652 -3.95649,-0.07154 -6.34758,-0.0307 -12.71175,-0.248105 -19.04178,-0.248105 m -147.635512,5.202535 -0.247293,0.24785 c 0.198289,0.8344 0.244837,1.62146 0.247293,2.4774 2.15444,-0.51382 4.476563,-0.36666 6.677005,-0.51752 3.794262,-0.26039 7.580109,-0.68625 11.375598,-0.94686 2.298633,-0.15754 4.653614,-0.0954 6.924299,-0.51754 v -1.73417 c -6.342893,0 -12.693448,0.59111 -19.041799,0.74692 -1.959562,0.0482 -3.981703,0.55545 -5.935103,0.24405 m 147.635682,-0.99095 v 1.98192 c 8.25623,0 16.45656,1.48645 24.72959,1.48645 v -2.22985 c -8.24065,-0.17048 -16.47659,-1.2387 -24.72959,-1.2387 m -147.388389,6.19349 0.247316,2.47742 c 2.556044,-0.008 5.125187,-0.44692 7.666155,-0.70137 3.709193,-0.3716 7.421614,-0.62825 11.128328,-1.04521 1.318578,-0.14841 2.642841,-0.23238 3.956485,-0.41348 0.485195,-0.067 1.140778,-0.0421 1.477096,-0.46673 0.369701,-0.46676 0.252251,-1.27883 0.254229,-1.83255 -1.506044,0.0127 -2.955443,0.36865 -4.451322,0.47345 -6.748476,0.47145 -13.527105,1.21812 -20.278287,1.50847 m 147.388389,-1.73417 v 1.98192 c 6.00508,0.12405 12.05024,1.34869 18.05261,1.74013 1.40437,0.0913 2.79863,0.32553 4.20403,0.39539 0.48544,0.0228 1.16153,0.15399 1.58194,-0.16388 0.55124,-0.4167 0.52699,-1.59246 0.64372,-2.21927 -8.15508,-0.35079 -16.31635,-1.73417 -24.4823,-1.73417 m -146.89378,6.68899 0.494586,2.72514 c 3.488118,-0.64908 7.105807,-0.90005 10.633719,-1.27982 2.39407,-0.25767 4.770336,-0.73531 7.171592,-0.92854 1.403897,-0.11314 2.807794,-0.25442 4.203778,-0.44717 0.484695,-0.067 1.141756,-0.0419 1.477096,-0.46673 0.407289,-0.5163 0.253729,-1.46737 0.254229,-2.08028 -8.035151,1.01721 -16.161283,1.83897 -24.235,2.4774 m 146.89378,-2.4774 v 2.4774 c 7.85165,0.0652 15.6234,2.47665 23.4931,2.47739 l 0.24732,-2.47739 c -5.48627,-1.02045 -11.26163,-1.15374 -16.81614,-1.69206 -2.29763,-0.22274 -4.67019,-0.24633 -6.92428,-0.78534 m -122.906073,4.45932 c -3.654799,1.11259 -7.837817,1.12126 -11.622914,1.52756 -3.778184,0.40529 -7.58186,1.28206 -11.37562,1.4453 0.07572,0.92953 0.306893,1.81348 0.494586,2.72515 2.387908,-0.0492 4.808925,-0.58292 7.171592,-0.92383 5.189494,-0.74916 10.379762,-1.63508 15.579649,-2.29679 0,-0.84579 0.08095,-1.69378 -0.247293,-2.47739 m 122.906073,0 c 0,0.70258 -0.22148,1.93186 0.39642,2.43403 0.98101,0.79676 3.33181,0.71027 4.54949,0.89087 3.94685,0.58543 7.90458,1.19611 11.87021,1.64229 1.34925,0.15196 3.83828,1.06378 5.11557,0.55915 0.77997,-0.30821 0.86801,-1.84468 1.06683,-2.55348 -4.6148,-0.58464 -9.22339,-1.19681 -13.84858,-1.69304 -3.04495,-0.32678 -6.17571,-0.50885 -9.14994,-1.27982 m -144.915412,7.92768 c 0.318263,0.99716 0.576199,2.01139 0.989172,2.97286 3.166626,-1.00606 6.62234,-1.21266 9.891839,-1.75398 3.697573,-0.61217 7.632046,-1.63706 11.375621,-1.71436 v -2.72514 c -7.459202,0.5906 -14.794246,2.63049 -22.256632,3.22062 m 144.915412,-2.9729 v 2.47742 c 4.9667,0.63224 9.89134,1.60385 14.83775,2.37235 1.39944,0.21715 2.80088,0.44024 4.20403,0.63274 0.51066,0.07 1.15635,0.26632 1.65615,0.0563 0.82201,-0.3456 0.90806,-1.80901 1.06412,-2.56586 -4.7063,-0.59903 -9.39973,-1.37099 -14.09587,-2.04904 -2.52366,-0.36419 -5.11532,-0.9169 -7.66618,-0.92385 m -143.184337,7.9277 c 0.19124,0.80788 0.431029,2.21308 1.304479,2.56585 1.36358,0.55123 3.968106,-0.52521 5.372503,-0.76973 4.605133,-0.80145 9.223136,-1.91528 13.848575,-2.53932 v -2.72514 c -6.820424,1.28725 -13.712319,2.14468 -20.525557,3.46834 M 161.53908,125.423 v 2.72514 c 2.07754,0.0429 4.15062,0.63348 6.1824,1.04052 2.62306,0.52546 5.27409,0.93422 7.91347,1.37569 1.21175,0.20269 3.94955,1.29395 5.03544,0.54875 0.72655,-0.49845 0.95776,-1.67149 1.14696,-2.46948 -3.63995,-0.8983 -7.4258,-1.29096 -11.12833,-1.83996 -3.00142,-0.44519 -6.11982,-1.31797 -9.14994,-1.38066 m -141.20597,7.92768 c 0.179871,1.19636 0.734467,2.13824 1.236466,3.22062 3.382515,-0.65725 6.774922,-1.34274 10.139132,-2.08695 2.328535,-0.51531 4.787163,-1.27736 7.171592,-1.38139 v -2.9729 c -6.231605,0.12888 -12.304215,2.95207 -18.54719,3.22062 m 141.20597,-3.22062 v 2.9729 c 5.78871,0.78087 11.57073,2.35326 17.31071,3.46834 0.28958,-1.05239 0.78963,-1.98291 1.23648,-2.97287 -6.04934,-1.56796 -12.40338,-2.30869 -18.54719,-3.46837 m -138.733016,8.42316 c 0.183736,1.01971 0.619723,2.35032 1.754065,2.64538 1.022577,0.26607 2.203149,-0.24582 3.191844,-0.46698 2.474454,-0.55347 4.939245,-1.15077 7.418885,-1.68291 0.971867,-0.20853 2.550359,-0.31908 3.313023,-1.01301 0.682279,-0.62059 0.396419,-2.11843 0.396419,-2.95082 -5.411342,0.70009 -10.736365,2.36468 -16.074236,3.46834 m 138.733016,-3.46834 -0.24729,0.24759 c 0.2364,0.99519 0.24729,1.95394 0.24729,2.97289 3.46857,0.7172 6.92082,1.54366 10.38643,2.28193 1.07351,0.22857 3.10652,1.12624 4.15136,0.64114 0.87691,-0.40726 1.3584,-1.8657 1.78374,-2.67534 -5.41084,-1.1183 -11.00394,-1.97076 -16.32153,-3.46834 m -126.120929,40.38162 0.247293,0.24759 -0.247293,-0.24759"
     id="path1"
     sodipodi:nodetypes="cccccsccsccccccccsccccccccccccccccscscsccsccccccccccccccccccccccccscccccsccscccccccsassasscccccccccccccccccccccccccccccccccccccccccccccccccccccccccccccccccccccccccccccsccccccccccccccccccccccccccccccccccccccscccccccscccsccccccccccccsccccccccccccccccccccccccccccssccccccccccccccccccccccsccccccccccscscccccscccccccccccccccccccssccccccccccccccccccsccccccscccccc" />
  <path
     style="fill:#262626;fill-opacity:1;stroke:none;stroke-width:0.199974"
     d="m 88.401438,34.312965 c -2.897252,0 -6.098942,-0.239479 -8.539538,1.41029 -0.65863,0.445446 -1.255544,0.97778 -1.715384,1.58655 -0.321515,0.425964 -0.533289,0.980039 -1.10544,1.198437 -0.657561,0.250895 -1.602232,0.11289 -2.302908,0.11289 -2.005609,0.153987 -4.140744,-0.43124 -5.977672,0.374618 -3.861365,0.155002 -7.39162,3.377267 -8.27503,6.556 -0.267509,0.962408 -0.379593,2.009698 -0.458795,2.997018 -0.03729,0.462672 0.06049,1.013931 -0.238674,1.42546 -0.662882,0.91167 -2.641273,1.390426 -3.623101,2.071522 -2.328103,1.614633 -3.937816,4.211563 -4.233499,6.805297 -0.470937,4.128963 0.104375,8.419398 0.104375,12.550061 0,4.235359 -0.140986,8.490202 -0.140986,12.737358 v 50.949454 9.1784 c 0,1.16437 0.400513,3.01465 -0.128706,4.09395 -0.437009,0.89067 -2.447008,1.07781 -3.277913,1.748 -1.27153,1.02593 -1.080881,2.31298 -1.933343,3.45277 -0.480352,0.64212 -1.424181,0.94538 -1.963656,1.57701 -1.143665,1.33948 -1.117833,2.72803 -1.03074,4.30073 0.03343,0.60164 -0.04844,1.32056 0.527968,1.7602 0.574493,0.43794 1.553978,0.30026 2.255723,0.30026 1.848797,1.8e-4 3.703166,-0.0495 5.55069,-0.0102 39.941877,-0.0152 41.795587,0.0102 78.350271,0.0102 h 19.00048 5.12373 c 0.72585,0 1.6637,0.11847 2.31675,-0.22096 1.27647,-0.66308 0.87382,-3.22181 0.61038,-4.27468 -0.43915,-1.75439 -1.85287,-2.21181 -3.0119,-3.45763 -0.49293,-0.53011 -0.364,-1.35636 -0.6695,-1.97449 -0.81233,-1.64406 -2.6368,-2.55758 -4.58294,-2.80972 V 79.268207 64.283067 c 0,-2.812157 0.37957,-5.808439 -1.02092,-8.42914 -0.86997,-1.62851 -2.01084,-3.045167 -3.67583,-4.118105 -0.91502,-0.58949 -2.83343,-1.077251 -3.40985,-1.918093 -0.58048,-0.846473 -0.27797,-2.528384 -0.46391,-3.51682 -0.34114,-1.812838 -1.47178,-3.713705 -2.99503,-4.975259 -2.36651,-1.960255 -5.31821,-2.666237 -8.50239,-2.702565 -1.56894,-0.01776 -3.58683,0.307747 -5.10131,-0.06164 -0.82576,-0.201427 -1.17568,-1.078926 -1.66222,-1.625492 -0.78435,-0.881507 -1.86269,-1.630387 -3.05695,-2.038922 -1.91776,-0.656159 -3.96169,-0.584239 -5.97767,-0.584239 m 5.97767,4.49554 c -9.65714,-0.169209 -19.340984,0.01015 -29.03442,0 -2.852205,-0.0025 -5.696292,-0.186967 -8.539538,-0.18722 1.757862,-1.965126 5.361111,-1.3112 7.899077,-1.3112 h 21.348841 c 2.4139,0 7.03807,-0.798907 8.32604,1.498496 m 17.93304,98.152652 c -1.17291,-0.13293 -2.22648,-0.40237 -3.41581,-0.23314 -0.84393,0.11999 -1.60393,0.31693 -2.34838,0.69475 -4.55884,2.31483 -3.84279,6.4155 -3.84279,10.40268 h -13.23629 c 1.87252,-1.1325 4.26168,-0.78259 6.40466,-0.7828 l 5.55071,-0.15373 c 0,-1.92314 -0.19852,-3.92984 0.37509,-5.80674 1.06296,-3.47841 4.82846,-5.59057 8.80491,-5.61942 V 73.46167 55.292191 c 0,-3.022133 0.5825,-10.421105 -0.83061,-10.533513 -9.79583,-0.779196 -45.108659,-0.204471 -67.058739,-0.33073 -2.310798,1.736986 -1.921382,4.530573 -1.921382,6.930643 0,5.371973 0.06208,10.736665 -7.51e-4,16.109018 -0.265803,22.678515 7.51e-4,45.340341 7.51e-4,67.995051 4.297943,0.0784 7.978279,2.4793 8.988076,6.18136 0.453018,1.66035 0.191922,3.54605 0.191922,5.2448 1.14644,0.0203 2.26425,0.19813 3.415806,0.18646 2.586198,-0.0261 4.999915,-0.20726 7.472096,0.5627 -1.113558,0.41003 -2.643183,0.18722 -3.842787,0.18722 h -8.326036 c 0,-3.81503 0.827266,-7.81981 -3.415829,-10.2298 -0.728213,-0.41358 -1.491854,-0.69642 -2.348364,-0.81892 -1.308914,-0.18722 -2.343043,0.0325 -3.629308,0.18443 0,-1.1078 0.116654,-2.27158 -0.03957,-3.37166 l 0.03957,-7.11794 c 0,-1.35073 0.07936,-2.79019 -0.03957,-4.12092 -0.342686,-1.18241 -0.278287,-2.18099 -0.178051,-3.37167 0.09028,-2.17921 0.0045,-4.37526 0.0045,-6.556 0,-1.69462 0.210569,-3.37128 0.213525,-5.05747 0.02052,-11.631089 -0.213474,-23.192106 -0.213474,-34.840441 V 59.787452 c 0,-2.042475 0.425071,-4.172801 0,-6.181383 v -3.9336 l 0.0473,-2.639067 c -0.02047,-0.552198 0.214435,-1.156655 0.429733,-1.669151 0.812554,-1.933821 3.066549,-3.205319 5.287048,-3.620958 1.830447,-0.342603 3.899364,-0.125321 5.764193,-0.125321 h 10.674422 33.944669 6.83164 c 3.59492,0 7.42534,0.02283 9.41376,3.18434 1.47371,2.344233 0.83368,5.658561 0.83368,8.241818 V 71.026287 136.96091 M 88.828624,48.923233 c -0.878499,0.370305 -1.823829,0.328346 -2.775345,0.428197 -1.699785,0.178341 -3.417307,0.333419 -5.123709,0.476523 -0.839455,0.07052 -1.734167,-0.02537 -2.539445,0.246836 -0.907969,0.305514 -1.14985,1.241513 -1.775803,1.825751 -0.878499,0.820039 -2.118444,1.234384 -3.37035,1.330861 -2.05e-4,2.436397 -0.296524,5.350434 -3.629308,5.806739 0,11.387572 0.100736,22.723468 -0.216708,34.091176 -0.06435,2.312777 -0.615493,4.62086 -0.637255,6.930644 -0.643894,-1.343063 -0.364015,-3.063357 -0.435304,-4.49554 -0.143487,-2.872839 -0.205111,-5.732384 -0.205111,-8.616461 V 57.914261 c 1.729255,-0.228317 3.234548,-1.181769 3.395727,-2.809721 0.07595,-0.767602 -0.242086,-1.855356 0.148717,-2.563571 0.347552,-0.629394 1.779214,-0.696824 2.424814,-1.070147 1.050365,-0.607273 1.3659,-1.757941 2.29222,-2.355092 0.766415,-0.494129 2.570393,-0.192547 3.480295,-0.192547 h 8.966497 m 40.562834,3.184339 c 0,2.532671 -0.0976,5.512261 3.6293,5.806739 0,11.985281 0.16168,23.979948 -7.5e-4,35.964316 -0.0296,2.183904 -0.42441,4.369483 -0.42611,6.556003 -0.83582,-1.055335 -0.85333,-2.684226 -0.85397,-3.933603 V 89.383037 61.66054 c 0,-0.662526 0.17714,-1.604714 -0.2517,-2.19121 -0.32215,-0.440373 -0.97628,-0.546211 -1.4564,-0.806746 -0.60697,-0.32931 -1.16118,-0.788608 -1.55762,-1.310465 -0.91545,-1.204423 -0.79057,-2.743586 -0.79057,-4.120718 -1.43207,-0.05759 -2.61798,-0.55745 -3.5838,-1.506006 -0.56554,-0.555394 -0.8702,-1.41029 -1.76257,-1.618768 -1.39196,-0.325378 -3.04286,-0.17758 -4.47409,-0.263555 -3.27832,-0.197113 -6.54471,-0.505747 -9.82046,-0.732593 1.11356,-0.410032 2.64318,-0.18722 3.84279,-0.18722 h 8.11256 c 1.18551,0 3.12035,-0.324261 4.21105,0.11289 0.65777,0.263732 0.92164,1.107389 1.38535,1.565393 1.02751,1.015047 2.27875,1.477719 3.7971,1.506005 M 98.435672,51.974362 c 1.681438,-0.191532 3.470448,-0.08397 5.123708,0.208023 11.13045,1.964922 16.47769,13.142163 10.94748,21.653523 -0.94256,1.450752 -2.1906,2.772429 -3.68886,3.808279 -2.68869,1.858908 -5.80006,2.891764 -9.18,3.256082 -1.91629,0.2065 -3.894248,-0.01522 -5.764193,-0.386414 -1.834085,-0.36376 -3.538782,-1.044475 -5.123732,-1.938515 -1.622084,-0.915044 -3.165398,-2.065154 -4.320797,-3.428232 -5.521447,-6.512925 -3.418375,-15.827859 3.893815,-20.512952 2.359688,-1.512018 5.231541,-2.331499 8.112579,-2.65987 m -36.079556,2.380942 c -2.62058,0.663845 -4.668349,3.136013 -5.226629,5.432122 -0.441921,1.817126 -0.110514,3.9525 -0.110514,5.80674 V 77.207569 148.9489 H 55.31107 V 82.265047 66.156029 62.40975 c 0.560804,-3.041539 -0.378546,-7.8706 5.123709,-9.365722 1.145575,-0.221467 1.749539,0.337352 1.921405,1.3112 m 37.391859,-1.302397 c -1.200878,0.574877 -0.213525,2.179034 0.951747,1.625897 1.15817,-0.549762 0.24977,-2.200952 -0.951747,-1.625897 M 145.83007,102.8696 v 8.80379 37.27551 c -0.65713,-0.0127 -1.2756,-0.0819 -1.92141,-0.18722 0,0 0.52167,-63.108685 -0.61544,-90.930069 -0.0776,-1.898838 -3.41535,-2.467246 -5.14875,-3.476281 1.02026,-1.874459 2.66156,-1.349963 4.25078,-0.18443 2.17289,1.593857 3.36221,3.885654 3.43161,6.365888 0.25662,9.166021 0.002,18.366137 0.002,27.535176 v 7.679879 M 99.715616,55.575583 c -6.708454,0.379311 -12.058695,4.993601 -12.360131,10.955241 -0.310191,6.135288 6.027858,11.757167 13.000595,11.408755 4.72385,-0.236182 9.04936,-2.914799 10.91503,-6.725894 2.7446,-5.606125 0.18328,-13.410386 -7.07225,-15.142653 -1.38511,-0.330806 -3.04626,-0.576755 -4.483244,-0.495449 m 7.258594,3.650005 c -2.25911,-1.053835 -4.42026,-1.899573 -7.045114,-1.86979 -2.091111,0.02283 -4.350881,0.843479 -5.977672,1.9668 -1.383409,0.955127 -2.523641,2.231851 -3.228796,3.649269 -0.629159,1.26437 -0.827471,2.566944 -0.827471,3.9336 0,1.346234 0.218073,2.529475 0.911585,3.746279 1.442532,2.531175 4.006967,4.422858 7.200107,4.972443 5.648701,0.972149 11.665441,-2.902444 12.169691,-7.969461 0.44963,0.939931 0.1212,2.057264 -0.21967,2.997018 -0.91545,2.524629 -3.1669,4.561675 -5.97149,5.532505 -5.377137,1.860962 -11.267057,-0.224258 -13.99715,-4.595923 -2.331718,-3.733924 -1.668427,-8.935471 1.848161,-11.956081 3.579349,-3.074773 11.650929,-4.3706 15.137819,-0.406659 m -3.62929,13.111976 c -0.34064,-3.566314 -3.20103,-6.174559 -8.539533,-7.305236 0.704086,-3.44939 5.237723,-4.413701 8.539533,-3.08733 3.62567,1.456562 4.8321,5.639104 2.69251,8.518691 -0.65881,0.886733 -1.55034,1.541394 -2.69251,1.873875 m -14.932453,0.721355 c -1.372744,0.362086 -0.778604,2.243089 0.616334,1.913983 1.372517,-0.323881 0.73483,-2.270437 -0.616334,-1.913983 m 11.351812,5.485675 c -1.10096,0.46323 -0.489311,2.146638 0.732711,1.726306 1.18869,-0.409094 0.4543,-2.226042 -0.732711,-1.726306 m -13.284951,4.657213 c -1.252315,0.831658 -2.899822,1.33667 -4.269769,2.037046 -1.424386,0.728255 -2.742259,1.658293 -4.05629,2.528536 -2.29563,1.520237 -4.158094,3.702467 -6.618132,4.987436 0.475007,-1.416657 1.63318,-2.690591 2.783668,-3.746278 2.991826,-2.745286 7.818169,-5.235998 12.160523,-5.80674 m 28.607462,0.18722 c 5.55219,1.58787 11.65689,4.417252 14.09023,9.365722 l -5.97767,-4.385211 c -2.50572,-1.845234 -5.28789,-3.682984 -8.32606,-4.793189 l 0.21352,-0.18722 M 98.221215,84.88765 c -0.535654,0.512674 -1.119743,1.189254 -1.817644,1.532414 -1.338362,0.658416 -3.32337,0.651491 -4.800488,1.037727 -2.589836,0.67696 -5.160457,1.610143 -7.472096,2.845491 -1.848593,0.987903 -3.743097,2.951127 -5.977695,3.013508 0.903717,-1.730974 2.939525,-2.961451 4.696751,-3.995221 4.419009,-2.599923 10.00108,-4.430722 15.371172,-4.433919 m 24.337695,8.42914 c -1.61676,-0.03399 -2.56892,-0.820623 -3.84279,-1.603776 -1.27987,-0.78673 -2.67565,-1.520821 -4.05629,-2.163102 -2.10585,-0.979861 -4.51058,-1.810225 -6.83164,-2.292 -1.47989,-0.306985 -3.0074,-0.372563 -4.48324,-0.684444 v 0.936582 c 4.09021,0.154495 8.28419,1.644797 11.74186,3.475064 1.32213,0.699792 2.93248,1.451868 3.62931,2.706294 l -5.55071,-2.668089 c -2.85755,-1.232532 -6.37371,-2.372139 -9.60698,-2.378329 -1.39622,-0.0025 -2.39535,1.05721 -3.842791,0.861085 -1.433368,-0.194323 -3.026641,-1.71319 -1.280922,-2.557964 0.754887,1.246003 2.748653,1.749138 3.302863,-0.0025 0.22716,-0.718539 -0.26258,-1.402983 -0.52752,-2.057645 5.01099,4.82e-4 9.67934,1.322058 14.09023,3.323309 2.71025,1.229538 5.54451,2.838388 7.25862,5.105806 m -5.76419,39.897939 c -1.74029,1.1802 -3.63343,2.02505 -5.5507,2.81701 l -2.77536,1.11659 c -0.87903,0.27837 -2.40174,0.6727 -3.41581,0.74926 -1.58372,0.19128 -2.69892,0.1408 -4.05629,0.17733 -2.857526,0.0804 -5.812855,-0.0586 -8.539537,-0.84328 -1.068284,-0.30739 -2.701487,-0.60747 -3.415806,-1.39456 -1.588793,-0.14561 -3.148525,-1.31513 -4.33062,-2.2045 -1.869514,-1.40618 -3.706578,-2.6771 -5.293233,-4.3515 -6.776332,-7.15053 -8.217386,-17.50807 -3.343654,-25.84936 1.735441,-2.96987 4.541121,-5.651456 7.416816,-7.811006 7.1446,-5.365428 19.258784,-6.595322 27.753494,-3.182665 7.64395,3.07084 13.67672,9.383331 15.49413,16.613091 1.44212,5.73743 0.62402,12.03419 -3.04733,17.04561 -1.96795,2.68637 -4.17501,4.95549 -6.8961,7.11793 M 99.288658,92.088038 c -9.541218,0.908093 -18.776087,5.425551 -22.87208,13.404402 -4.300081,8.3765 -2.211312,19.32088 5.582708,25.62999 5.116273,4.14172 12.534772,6.00791 19.424254,5.4323 10.70239,-0.89422 20.87939,-7.3871 23.50552,-16.82641 1.2867,-4.62556 0.86676,-9.85986 -1.2756,-14.23588 -3.89041,-7.947013 -14.25505,-14.366632 -24.364802,-13.404402 m -24.337692,4.600616 c 0.591593,0.234405 1.253179,0.637436 1.921405,0.642687 2.073601,0.01522 1.610122,-1.985902 1.280921,-3.077766 0.413111,0.0203 0.836681,0.01268 1.198536,0.220707 3.429041,1.97129 -2.673949,6.381998 -4.242458,3.304231 -0.172594,-0.339026 -0.148263,-0.728662 -0.158495,-1.089986 M 121.91836,94.44077 c -0.40222,1.113579 -0.50705,3.004882 1.4944,2.857085 0.71541,-0.05277 1.30464,-0.522593 1.9214,-0.79665 -10e-4,0.419977 0.0537,0.902487 -0.1287,1.301281 -0.29205,0.638172 -1.05678,0.896678 -1.79268,0.921412 -1.30205,0.04363 -2.52598,-0.647177 -3.10475,-1.660931 -0.73376,-1.284791 0.009,-2.57557 1.61035,-2.622197 m -23.483731,0.749261 c -1.524099,0.642662 -3.492461,0.734065 -5.123732,1.254044 -2.671607,0.851725 -5.00162,2.274952 -7.045114,3.990735 4.523816,-2.44726 8.974842,-3.746283 14.303727,-3.746283 -0.684231,0.451814 -1.521753,0.340548 -2.348588,0.456685 -1.387047,0.195084 -2.738643,0.563436 -4.056084,0.984706 -4.165372,1.332358 -7.920407,3.838062 -10.515359,6.987752 -1.489944,1.80852 -2.596885,3.80904 -3.14491,5.99406 -0.515142,2.05389 -0.552504,4.10144 -0.216253,6.18135 0.284791,1.7634 0.953653,3.47337 1.869081,5.05748 6.181146,10.69509 23.829803,12.66209 32.806353,3.55899 2.143,-2.1734 3.80352,-4.52794 4.7292,-7.30527 1.2613,-3.78468 0.93357,-7.23707 0.0905,-11.05154 0.6806,0.67752 0.8486,1.57232 1.09455,2.43511 0.64069,2.24963 0.74657,4.44513 0.43296,6.74329 -1.4214,10.41713 -12.20941,17.44813 -23.943796,16.4518 -2.996738,-0.25437 -5.894217,-1.1293 -8.53956,-2.3624 -2.138068,-0.9965 -4.114344,-2.37251 -5.702478,-3.97441 -1.438484,-1.45131 -2.63254,-3.09388 -3.474951,-4.87018 -4.430948,-9.34155 0.312965,-19.78432 10.244894,-24.69664 2.565913,-1.26924 5.588893,-2.035904 8.539537,-2.089279 m 0,3.558957 c -1.489102,0.822119 -3.348587,1.178953 -4.910252,1.931592 -2.355845,1.13511 -4.376941,2.826 -6.097214,4.62441 -1.541608,1.61164 -2.865462,3.58838 -3.528981,5.61942 -0.589638,1.80459 -0.693399,3.5809 -0.440853,5.43212 0.246361,1.80515 0.815738,3.4535 1.80698,5.05748 6.217415,10.0614 23.947004,9.80908 29.874284,-0.37462 1.1157,-1.91698 1.96559,-4.19941 2.07469,-6.36871 0.17851,-3.54939 -1.47564,-6.56909 -2.98052,-9.74034 1.24081,0.96974 1.89535,2.40345 2.47114,3.74631 1.60286,3.73841 1.74612,7.77785 0.51771,11.61348 2.30331,-3.28437 0.96839,-7.34124 0.64046,-10.86422 1.32065,1.6242 1.28092,4.26626 1.28092,6.18136 0,1.78698 -0.17964,3.57095 -0.95065,5.2448 -3.06955,6.66295 -12.00253,10.57237 -19.971216,9.89579 -4.757578,-0.40384 -9.357617,-2.25582 -12.558671,-5.40025 -6.095531,-5.98732 -6.057101,-15.7653 0.393032,-21.54094 1.674384,-1.49946 3.575506,-2.68291 5.760986,-3.53296 2.100525,-0.817243 4.30265,-1.437429 6.618155,-1.524722 m -14.517232,0.18722 c -1.425455,1.796522 -3.200189,3.302352 -4.416644,5.244802 -3.468335,5.53775 -3.665601,12.38407 -0.871245,18.16945 0.901557,1.86622 2.208743,3.52601 3.703598,5.0575 9.136657,9.36027 25.670917,8.85209 35.109667,0.18646 2.14812,-1.97222 3.9015,-4.14621 4.90255,-6.74256 0.57472,1.66053 -1.4182,4.29549 -2.42416,5.61942 -3.83937,5.05281 -9.99553,8.13525 -16.78981,8.93826 -9.570888,1.13119 -19.560667,-2.59467 -24.4598,-10.06214 -1.315076,-2.00465 -2.095795,-4.11062 -2.610528,-6.36868 -0.448743,-1.96794 -0.651558,-3.98362 -0.433372,-5.99406 0.391326,-3.60505 1.586429,-7.11776 3.971722,-10.11422 1.131499,-1.42153 2.624854,-2.61134 3.891063,-3.934334 h 0.426959 m -10.46092,0.56194 c -0.374044,1.847114 -1.720296,3.499594 -2.471135,5.244804 -1.124019,2.61301 -1.761933,5.46132 -2.012136,8.24181 -0.526877,-1.1016 -0.06617,-2.59672 0.123703,-3.74628 0.517076,-3.13134 1.547998,-7.54296 4.359659,-9.740334 m 53.799095,0 c 2.04884,1.335554 3.04156,4.285364 3.71918,6.368674 1.9579,6.01933 1.98459,12.9481 -0.23293,18.91875 -0.63341,1.70568 -1.40283,3.33081 -2.46238,4.87015 -0.57001,0.82831 -1.08088,1.62722 -2.09131,2.06046 0.1328,-1.13793 0.83281,-2.00556 1.42609,-2.99702 0.68467,-1.1443 1.28606,-2.35361 1.81657,-3.55898 1.61825,-3.67679 2.36056,-7.492 2.30716,-11.42616 -0.0423,-3.11673 -0.93314,-6.48537 -2.26297,-9.36572 -0.65413,-1.41683 -2.4376,-3.31039 -2.21941,-4.870154 m -41.203291,0.936554 0.213525,0.18722 -0.213525,-0.18722 m 39.922351,0.18722 c 6.11879,8.77212 6.23151,20.12223 -0.42699,28.65908 -0.37188,-0.10934 -0.48205,-0.10934 -0.85394,0 l -0.21352,-0.18722 c 1.53392,-1.13846 2.1382,-4.20996 2.83492,-5.99406 0.93146,-2.7136 1.418,-5.78594 1.418,-8.61644 0,-2.79548 -0.55764,-5.79456 -1.62529,-8.42913 -0.67462,-1.66449 -1.9026,-3.31304 -2.20065,-5.05748 l 1.06744,-0.37465 m -28.393958,0.18722 c -0.658198,0.82773 -2.210039,0.89255 -3.202327,1.37658 -1.808025,0.88168 -3.250148,2.22434 -4.69675,3.49358 2.340473,-1.40392 4.361568,-2.66885 7.258616,-2.99702 -1.152852,0.63967 -2.470498,1.03192 -3.629308,1.70064 -1.770892,1.02179 -3.207875,2.42234 -4.449321,3.91878 -4.601949,5.54732 -2.004223,13.40722 4.876302,16.43308 6.068199,2.66867 13.971756,0.90868 17.702666,-4.07034 1.31871,-1.75964 1.88809,-3.71949 2.11546,-5.80674 0.31574,-2.89813 -1.00531,-5.18635 -1.88511,-7.8672 2.25382,2.27607 2.98394,6.24805 2.8915,9.1784 -0.0357,1.12969 -0.44149,2.24441 -0.54311,3.37166 1.73223,-3.53255 0.7235,-6.93587 -0.21353,-10.4896 1.32834,1.54178 1.70429,4.10875 1.70793,5.99406 0.001,0.92065 0.21148,1.90087 0.0739,2.80972 -0.46861,3.0935 -2.54201,5.57259 -5.41109,7.34553 -8.15654,5.04025 -21.412243,2.92732 -24.904477,-5.84703 -0.851189,-2.13837 -1.181231,-4.50041 -0.766643,-6.7433 0.485263,-2.62577 1.623584,-5.13467 3.701665,-7.11794 2.651961,-2.53099 5.633554,-3.87403 9.37365,-4.68286 m 0.426981,0.0624 c 0.165089,0 0.03411,0.0934 -0.07117,0.0627 l 0.07117,-0.0627 m -23.05677,0.12507 c -0.473302,1.43875 -1.478393,2.7374 -2.134885,4.1209 -0.366335,-1.17221 1.275396,-3.25309 2.134885,-4.1209 m 23.697231,2.99702 c -0.717116,0.78165 -2.412626,0.95419 -3.415829,1.48464 -2.125061,1.1237 -3.742233,2.68945 -4.723856,4.69672 -0.672478,1.37469 -0.879136,2.82283 -0.85651,4.30824 0.02047,1.39697 0.262597,2.65873 0.953222,3.9336 0.541839,0.99988 1.376359,1.85196 2.279644,2.61489 0.87743,0.74101 1.869946,1.29621 2.987984,1.71712 7.633268,2.87413 16.114098,-3.1954 14.558848,-10.32607 -0.52476,-2.40588 -1.92227,-4.02239 -3.45747,-5.99406 4.86371,3.0064 5.16173,8.83656 3.20233,13.29932 1.12809,-1.39157 1.46648,-2.87566 1.9214,-4.49557 0.37021,0.77418 0.16077,1.62309 0.0278,2.43511 -0.50043,3.05191 -3.20747,5.34706 -6.43242,6.42355 -7.287634,2.43284 -16.846588,-0.22984 -18.082462,-7.73475 -0.216026,-1.31252 -0.20261,-2.62859 0.06754,-3.9336 0.444491,-2.14811 1.686346,-4.11174 3.498647,-5.60258 2.12124,-1.74482 4.696545,-2.36782 7.471254,-2.82656 m -0.853963,2.24776 c -0.869744,0.48271 -1.887432,0.73579 -2.775345,1.21081 -1.96452,1.05082 -3.825074,2.82076 -4.483248,4.78325 -0.254911,-0.80675 0.383003,-1.75457 0.873791,-2.43508 1.398349,-1.93796 3.714286,-3.45183 6.384802,-3.55898 m 1.067442,14.4232 c 0.726076,-0.38175 1.545882,-0.36244 2.348382,-0.57001 1.26769,-0.32817 2.25082,-0.88618 3.20233,-1.67775 0.32527,-0.22578 0.33129,-0.60081 0.42698,-0.93658 -1.59909,-1.18639 -2.4994,-2.67134 -2.56186,-4.49554 -1.21712,-0.54538 -2.336997,-1.13002 -5.550716,-1.12388 -0.552686,-0.24963 -0.920431,-0.12583 -1.494424,0 1.353734,-3.2383 6.07397,-3.90552 9.17979,-2.14494 3.15581,1.78866 4.13593,5.79606 1.96432,8.51362 -0.7201,0.90117 -1.68144,1.55227 -2.81805,2.00183 -1.53115,0.60557 -3.07083,0.437 -4.696752,0.43325 m 14.944192,-1.12388 0.21352,0.18722 -0.21352,-0.18722 m -44.619072,1.68581 c 0.372111,2.18015 1.651099,4.62442 2.841313,6.556 0.771327,1.25202 1.958743,2.47836 2.068917,3.9336 -2.494398,-1.61557 -3.738618,-4.96288 -4.53771,-7.49255 -0.279242,-0.88433 -0.761731,-2.12208 -0.37252,-2.99705 m 9.393478,14.4232 c 0.02615,-0.53779 0.226486,-1.15609 0.101873,-1.68564 -0.379387,-1.61146 -2.164559,-1.36815 -3.517656,-1.12408 -0.167364,-1.14897 0.847959,-1.75982 2.134884,-1.61671 1.923747,0.2136 4.077847,2.39071 2.423518,3.97051 -0.326222,0.3117 -0.695536,0.37482 -1.142596,0.45592 m 46.540501,-2.43508 c -0.41994,-0.16058 -0.83753,-0.39841 -1.2897,-0.48139 -2.12015,-0.38961 -2.08663,2.69777 -2.26832,3.95915 -0.54737,-0.13902 -1.00211,-1.33003 -1.28477,-1.803 -0.88,-1.47209 0.55935,-3.27219 2.28092,-3.50781 1.60885,-0.2202 2.96065,0.2909 2.56187,1.83305 m -28.180481,9.55302 c 0.07163,-0.71593 0.241017,-1.44811 0.779013,-2.02055 2.103708,-2.23878 5.388008,-0.35253 5.625638,2.02055 1.62015,-0.3424 3.28728,-0.48215 4.91023,-0.83823 2.54904,-0.55932 4.92219,-1.44494 7.25862,-2.48772 1.87185,-0.83543 3.79644,-2.81345 5.97767,-2.48079 -0.98547,1.21716 -2.43932,2.05465 -3.84279,2.87208 -3.30502,1.92466 -6.99217,3.28662 -10.88792,3.97444 -1.76214,0.31112 -3.60603,0.28433 -5.33721,0.64604 0.18055,-0.59903 0.50852,-1.24413 0.33113,-1.87238 -0.41184,-1.45824 -2.507654,-1.62326 -3.341742,-0.36713 -0.455793,0.68632 -0.05503,1.38611 0.235264,2.05221 -5.391445,0 -10.606954,-1.4148 -15.157671,-3.94354 -1.626791,-0.90416 -3.64725,-1.97634 -4.483271,-3.54904 1.172044,-0.1309 1.861191,0.47092 2.775345,1.04392 1.094571,0.68573 2.23246,1.29265 3.415829,1.85178 3.792192,1.79203 7.57904,2.42028 11.741865,3.09836 m -30.528866,-3.87441 c 5.149359,-0.5552 6.059239,6.55036 0.853962,7.02615 -5.368591,0.49058 -6.15188,-6.45503 -0.853962,-7.02615 m 67.248877,0 c 5.20933,-0.56326 6.35406,6.46683 1.06745,7.02389 -5.28855,0.55728 -6.3831,-6.4494 -1.06745,-7.02389 m -67.248877,1.55676 c -2.837675,0.40068 -2.201262,4.36928 0.640483,3.92216 2.838107,-0.44674 2.229027,-4.3275 -0.640483,-3.92216 m 67.249087,-0.003 c -2.67288,0.56044 -1.88532,4.36179 0.85373,3.89877 3.05118,-0.51605 2.04245,-4.50622 -0.85373,-3.89877 m -16.01184,10.93672 h 21.98931 7.25861 c 1.68953,0.003 3.188,0.24886 3.62929,1.87314 H 50.399885 c 0.48997,-1.52737 2.001881,-1.87071 3.629308,-1.87314 h 9.393501 m 90.519116,6.556 c -23.99824,-0.0127 -47.95507,0.0256 -71.945617,0 -8.611281,-0.0101 -17.26247,-0.23745 -25.831251,-0.0101 -3.097725,0.0824 -6.317766,-0.31376 -9.394365,0.0101 0.843707,-2.17584 3.060795,-1.80571 5.184583,-1.85142 4.953139,-0.10655 9.926153,-0.0228 14.88334,-0.0228 h 64.04656 17.50603 c 2.03563,0 5.18757,-0.50369 5.55072,1.87314"
     id="path1-5"
     sodipodi:nodetypes="ccccsccccccsscsccccccccscsccccccscccccccccccccsscccccccccccsscsccccccscsccccccscsscccccsccscsccccccccccccscscccscccccccsccccscccsscccccccccscccccscccccccccccccccscccscccccccccccscccccccccccccccccccccccccccccccccsccccccccccccccccccccccccccccccccccccccccccscccccsccccccccccccsccccccccccccccccccccsccccssccccccccccccscccccccccccccccccssscccccccccsccccccccsscccscccccccsccccccccscccccsccccccccccccccccccccccsscccccccccccccccccccccccccsccscscccccccccccscccccccccccccccsccsscsc" />
  <path
     d="m 93.097597,168.3708 c 1.879951,0.25369 3.782641,0.84528 5.112612,2.27277 2.679931,2.87576 2.341131,7.86104 -0.909561,10.16377 -0.741152,0.52498 -1.589134,0.8344 -2.471976,1.02342 -7.306347,1.564 -11.376007,-7.41663 -17.557995,-10.14941 -4.110341,-1.81697 -10.316705,-3.65911 -12.844803,-4.09043 -0.55073,-0.0939 -0.862399,-0.67962 -0.735217,-1.10295 0.203975,-0.67866 1.30423,-0.75286 1.957107,-0.82273 1.643027,-0.17605 7.291748,1.10858 10.633718,2.56931 4.443909,1.94237 9.085902,5.10245 12.1175,8.06023 1.572307,1.53398 3.917169,3.05042 6.17869,1.97225 1.629179,-0.77668 2.578557,-2.74249 1.820351,-4.44594 -0.654605,-1.47133 -2.226162,-2.6154 -3.795012,-2.89139 -0.819285,-0.14434 -2.720497,0.28467 -3.155256,-0.65575 -0.283631,-0.61316 0.250772,-1.39776 0.547274,-1.90315 0.848483,-1.44654 2.159148,-4.12932 3.671104,-4.94314 0.641006,-0.34486 1.454106,-0.0228 1.523098,0.74619 0.06253,0.69936 -0.468618,1.40245 -0.808416,1.96728 -0.443649,0.73729 -0.880363,1.46887 -1.283218,2.22967"
     style="fill:#262626;fill-opacity:1;stroke:none;stroke-width:0.247519"
     id="path1-28"
     sodipodi:nodetypes="ccscacacasscccccccc" />
  <path
     d="m 108.11783,168.03647 c -1.87995,0.25369 -3.78264,0.84528 -5.11261,2.27277 -2.67993,2.87576 -2.34114,7.86104 0.90956,10.16377 0.74115,0.52495 1.58913,0.83439 2.47197,1.02342 7.30635,1.56397 11.37601,-7.41666 17.55802,-10.14941 4.11032,-1.817 10.31669,-3.65914 12.84479,-4.09043 0.55073,-0.0939 0.86239,-0.67963 0.73521,-1.10295 -0.20397,-0.67869 -1.30423,-0.75289 -1.9571,-0.82275 -1.64303,-0.17606 -7.29175,1.1086 -10.63372,2.56932 -4.44391,1.94235 -9.08591,5.10244 -12.11751,8.06021 -1.5723,1.53401 -3.91716,3.05042 -6.17869,1.97225 -1.62917,-0.77666 -2.57855,-2.74247 -1.82035,-4.44594 0.65461,-1.47133 2.22617,-2.61537 3.79502,-2.89136 0.81928,-0.14435 2.72049,0.28466 3.15525,-0.65578 0.28363,-0.61315 -0.25077,-1.39773 -0.54727,-1.90312 -0.84849,-1.44657 -2.15915,-4.12934 -3.67111,-4.94317 -0.64098,-0.34486 -1.4541,-0.0228 -1.52309,0.74619 -0.0625,0.69939 0.46861,1.40245 0.80841,1.96731 0.44365,0.73729 0.88036,1.46884 1.28322,2.22967"
     style="fill:#262626;fill-opacity:1;stroke:none;stroke-width:0.247519"
     id="path1-28-3"
     sodipodi:nodetypes="ccscacacasscccccccc" />
</svg>
